<?xml version="1.0" encoding="UTF-8"?>
<svg width="350px" height="357px" viewBox="0 0 350 357" version="1.1" xmlns="http://www.w3.org/2000/svg" xmlns:xlink="http://www.w3.org/1999/xlink">
    <title>Artboard</title>
    <g id="Artboard" stroke="none" stroke-width="1" fill="none" fill-rule="evenodd">
        <rect id="Rectangle" fill-opacity="0.2" fill="#0091FF" x="97" y="11" width="49" height="236"></rect>
        <rect id="Rectangle" fill-opacity="0.2" fill="#FA6400" x="209" y="10" width="49" height="287"></rect>
        <rect id="Rectangle" fill-opacity="0.25" fill="#000000" x="274" y="10" width="58" height="287"></rect>
        <path id="Line" d="M76.668626,108.525448 L77.4881953,109.098428 L77.2017052,109.508213 L74.9097846,112.78649 L74.6232946,113.196275 L73.8037253,112.623295 L74.0902154,112.21351 L76.3821359,108.935233 L76.668626,108.525448 Z M81.2524671,101.968894 L82.0720364,102.541874 L81.7855463,102.951659 L79.4936258,106.229936 L79.2071357,106.639721 L78.3875664,106.066741 L78.6740565,105.656956 L80.9659771,102.378679 L81.2524671,101.968894 Z M85.8363083,95.4123403 L86.6558775,95.9853204 L86.3693875,96.3951051 L84.0774669,99.6733821 L83.7909768,100.083167 L82.9714076,99.5101865 L83.2578976,99.1004019 L85.5498182,95.8221249 L85.8363083,95.4123403 Z M90.4201494,88.8557863 L91.2397187,89.4287664 L90.9532286,89.838551 L88.661308,93.116828 L88.374818,93.5266127 L87.5552487,92.9536325 L87.8417388,92.5438479 L90.1336593,89.2655709 L90.4201494,88.8557863 Z M95.0039905,82.2992323 L95.8235598,82.8722124 L95.5370697,83.281997 L93.2451492,86.560274 L92.9586591,86.9700587 L92.1390898,86.3970785 L92.4255799,85.9872939 L94.7175005,82.7090169 L95.0039905,82.2992323 Z M99.5878317,75.7426783 L100.407401,76.3156584 L100.120911,76.725443 L97.8289903,80.00372 L97.5425002,80.4135047 L96.722931,79.8405245 L97.009421,79.4307399 L99.3013416,76.1524629 L99.5878317,75.7426783 Z M104.171673,69.1861243 L104.991242,69.7591044 L104.704752,70.168889 L102.412831,73.447166 L102.126341,73.8569506 L101.306772,73.2839705 L101.593262,72.8741859 L103.885183,69.5959089 L104.171673,69.1861243 Z M112.885123,57.5953628 L112.798375,58.4800085 L111.902595,67.6149732 L111.853799,68.1125864 L110.858572,68.014994 L110.907369,67.5173807 L111.616,60.282 L111.580514,60.334058 L111.294024,60.7438426 L110.474454,60.1708625 L110.760944,59.7610779 L110.797,59.708 L104.245562,62.8599549 L103.794963,63.0766582 L103.361556,62.1754597 L103.812155,61.9587564 L112.084058,57.9806131 L112.885123,57.5953628 Z M108.755514,62.6295702 L109.575083,63.2025504 L109.288593,63.612335 L108.159274,65.2276712 L106.996673,66.890612 L106.710182,67.3003966 L105.890613,66.7274165 L106.177103,66.3176319 L107.339704,64.6546911 L108.469024,63.0393549 L108.755514,62.6295702 Z" fill="#000000" fill-rule="nonzero"></path>
        <g id="Group-2" transform="translate(20.9845, 295)">
            <g id="Group" transform="translate(-0, 0)">
                <path id="Line" d="M37.353397,1.47808467 L37.7891847,1.72321529 L45.7891847,6.22321529 L46.5639186,6.65900306 L45.7891847,7.09479083 L37.7891847,11.5947908 L37.353397,11.8399214 L36.8631357,10.9683459 L37.2989235,10.7232153 L43.635,7.159 L43.0297829,7.15900306 L43.0297829,6.15900306 L43.635,6.159 L37.2989235,2.59479083 L36.8631357,2.34966021 L37.353397,1.47808467 Z M8.02978289,6.15900306 L8.02978289,7.15900306 L3.02978289,7.15900306 L3.02978289,6.15900306 L8.02978289,6.15900306 Z M16.0297829,6.15900306 L16.0297829,7.15900306 L11.0297829,7.15900306 L11.0297829,6.15900306 L16.0297829,6.15900306 Z M24.0297829,6.15900306 L24.0297829,7.15900306 L19.0297829,7.15900306 L19.0297829,6.15900306 L24.0297829,6.15900306 Z M32.0297829,6.15900306 L32.0297829,7.15900306 L27.0297829,7.15900306 L27.0297829,6.15900306 L32.0297829,6.15900306 Z M40.0297829,6.15900306 L40.0297829,7.15900306 L35.0297829,7.15900306 L35.0297829,6.15900306 L40.0297829,6.15900306 Z" fill="#000000" fill-rule="nonzero"></path>
                <path id="Line" d="M37.3391257,19.9780847 L37.7749135,20.2232153 L45.7749135,24.7232153 L46.5496473,25.1590031 L45.7749135,25.5947908 L37.7749135,30.0947908 L37.3391257,30.3399214 L36.8488645,29.4683459 L37.2846523,29.2232153 L43.621,25.659 L-0.470217113,25.6590031 L-0.470217113,24.6590031 L43.621,24.659 L37.2846523,21.0947908 L36.8488645,20.8496602 L37.3391257,19.9780847 Z" fill="#0091FF" fill-rule="nonzero"></path>
                <path id="Line" d="M38.416861,38.8877946 L38.8489181,39.1394426 L46.7804311,43.7590855 L47.5485325,44.2064597 L46.7673411,44.6305627 L38.7006588,49.0099047 L38.2612386,49.2484627 L37.7841227,48.3696223 L38.2235428,48.1310643 L44.611,44.662 L38.536132,44.5711453 L0.508002244,43.9999436 L0.0080586379,43.9924342 L0.0230774479,42.992547 L0.523021054,43.0000564 L38.5511508,43.5712581 L44.628,43.662 L38.3456221,40.0035567 L37.9135651,39.7519087 L38.416861,38.8877946 Z" transform="translate(23.5155, 44) rotate(-1.1691) translate(-23.5155, -44)" fill="#E02020" fill-rule="nonzero"></path>
                <text id="allocation-(no-cost)" font-family="Helvetica" font-size="12" font-weight="normal" fill="#000000">
                    <tspan x="51.0155116" y="11">allocation (no cost)</tspan>
                </text>
                <text id="sales-(credit)" font-family="Helvetica" font-size="12" font-weight="normal" fill="#000000">
                    <tspan x="52.0155116" y="48">sales (credit)</tspan>
                </text>
            </g>
            <text id="production-(debit)" font-family="Helvetica" font-size="12" font-weight="normal" fill="#000000">
                <tspan x="49.0155116" y="29">production (debit)</tspan>
            </text>
        </g>
        <path id="Line" d="M217.337885,44.4780847 L217.773673,44.7232153 L225.773673,49.2232153 L226.548407,49.6590031 L225.773673,50.0947908 L217.773673,54.5947908 L217.337885,54.8399214 L216.847624,53.9683459 L217.283412,53.7232153 L223.62,50.159 L128.014271,50.1590031 L128.014271,49.1590031 L223.62,49.159 L217.283412,45.5947908 L216.847624,45.3496602 L217.337885,44.4780847 Z" fill="#0091FF" fill-rule="nonzero"></path>
        <line x1="129" y1="110" x2="225.514271" y2="110" id="Line" stroke="#0091FF" stroke-linecap="square"></line>
        <line x1="128.485729" y1="109.340997" x2="227.5" y2="167.5" id="Line" stroke="#0091FF" stroke-linecap="square"></line>
        <line x1="127.971458" y1="108.681994" x2="225.5" y2="268.5" id="Line" stroke="#0091FF" stroke-linecap="square"></line>
        <line x1="127.971458" y1="108.681994" x2="224.5" y2="220.5" id="Line" stroke="#0091FF" stroke-linecap="square"></line>
        <line x1="128.485729" y1="109.340997" x2="227.5" y2="51.5" id="Line" stroke="#0091FF" stroke-linecap="square"></line>
        <line x1="130.485729" y1="168.340997" x2="227" y2="168.340997" id="Line" stroke="#0091FF" stroke-linecap="square"></line>
        <line x1="129.971458" y1="167.681994" x2="224.5" y2="267.5" id="Line" stroke="#0091FF" stroke-linecap="square"></line>
        <line x1="129.971458" y1="167.681994" x2="225.5" y2="221.5" id="Line" stroke="#0091FF" stroke-linecap="square"></line>
        <line x1="129.971458" y1="167.681994" x2="227.5" y2="111.5" id="Line" stroke="#0091FF" stroke-linecap="square"></line>
        <line x1="129.971458" y1="167.681994" x2="227.5" y2="54.5" id="Line" stroke="#0091FF" stroke-linecap="square"></line>
        <line x1="127.971458" y1="220.681994" x2="224.485729" y2="220.681994" id="Line" stroke="#0091FF" stroke-linecap="square"></line>
        <line x1="127.457186" y1="220.022991" x2="225.5" y2="171.5" id="Line" stroke="#0091FF" stroke-linecap="square"></line>
        <line x1="127.457186" y1="220.022991" x2="227.5" y2="112.5" id="Line" stroke="#0091FF" stroke-linecap="square"></line>
        <line x1="127.457186" y1="220.022991" x2="224.5" y2="268.5" id="Line" stroke="#0091FF" stroke-linecap="square"></line>
        <line x1="126.457186" y1="221.022991" x2="230.5" y2="55.5" id="Line" stroke="#0091FF" stroke-linecap="square"></line>
        <line x1="128" y1="49" x2="227.5" y2="108.5" id="Line" stroke="#0091FF" stroke-linecap="square"></line>
        <line x1="127.485729" y1="48.3409969" x2="227.5" y2="167.5" id="Line" stroke="#0091FF" stroke-linecap="square"></line>
        <line x1="126.971458" y1="47.6819939" x2="225.5" y2="220.5" id="Line" stroke="#0091FF" stroke-linecap="square"></line>
        <line x1="126.457186" y1="47.0229908" x2="225.5" y2="267.5" id="Line" stroke="#0091FF" stroke-linecap="square"></line>
        <path id="Line" d="M281.809343,162.319082 L282.245131,162.564212 L290.245131,167.064212 L291.019864,167.5 L290.245131,167.935788 L282.245131,172.435788 L281.809343,172.680918 L281.319082,171.809343 L281.754869,171.564212 L288.091,168 L240,168 L240,167 L288.091,167 L281.754869,163.435788 L281.319082,163.190657 L281.809343,162.319082 Z" fill="#E02020" fill-rule="nonzero"></path>
        <path id="Line" d="M281.809343,263.319082 L282.245131,263.564212 L290.245131,268.064212 L291.019864,268.5 L290.245131,268.935788 L282.245131,273.435788 L281.809343,273.680918 L281.319082,272.809343 L281.754869,272.564212 L288.091,269 L240,269 L240,268 L288.091,268 L281.754869,264.435788 L281.319082,264.190657 L281.809343,263.319082 Z" fill="#E02020" fill-rule="nonzero"></path>
        <path id="Line" d="M281.809343,215.319082 L282.245131,215.564212 L290.245131,220.064212 L291.019864,220.5 L290.245131,220.935788 L282.245131,225.435788 L281.809343,225.680918 L281.319082,224.809343 L281.754869,224.564212 L288.091,221 L240,221 L240,220 L288.091,220 L281.754869,216.435788 L281.319082,216.190657 L281.809343,215.319082 Z" fill="#E02020" fill-rule="nonzero"></path>
        <path id="Line" d="M111.716855,150.260151 L111.79898,150.753361 L113.306589,159.807482 L113.452588,160.684299 L112.627445,160.35375 L104.106916,156.940456 L103.642773,156.754522 L104.014641,155.826236 L104.478784,156.01217 L111.228,158.716 L110.208877,157.449333 L109.895498,157.059726 L110.674712,156.432967 L110.988091,156.822574 L112.006,158.089 L110.812561,150.91761 L110.730437,150.4244 L111.716855,150.260151 Z M105.660642,150.19926 L105.974022,150.588866 L108.227911,153.390999 L108.481056,153.70572 L108.794436,154.095327 L108.015222,154.722085 L107.701843,154.332479 L107.448698,154.017758 L105.194808,151.215625 L104.881429,150.826018 L105.660642,150.19926 Z M100.646573,143.965552 L100.959953,144.355159 L103.466987,147.472012 L103.780366,147.861619 L103.001153,148.488378 L102.687774,148.098771 L100.180739,144.981917 L99.8673597,144.592311 L100.646573,143.965552 Z M95.632504,137.731844 L95.9458834,138.121451 L98.4529179,141.238305 L98.7662973,141.627912 L97.9870838,142.25467 L97.6737045,141.865064 L95.1666699,138.74821 L94.8532906,138.358603 L95.632504,137.731844 Z M90.6184349,131.498137 L90.9318142,131.887743 L93.4388488,135.004597 L93.7522281,135.394204 L92.9730147,136.020963 L92.6596353,135.631356 L90.1526008,132.514502 L89.8392214,132.124895 L90.6184349,131.498137 Z M85.6043657,125.264429 L85.917745,125.654036 L88.4247796,128.77089 L88.7381589,129.160496 L87.9589455,129.787255 L87.6455662,129.397648 L85.1385316,126.280795 L84.8251523,125.891188 L85.6043657,125.264429 Z M80.5902966,119.030722 L80.9036759,119.420328 L83.4107105,122.537182 L83.7240898,122.926789 L82.9448763,123.553547 L82.631497,123.163941 L80.1244624,120.047087 L79.8110831,119.65748 L80.5902966,119.030722 Z M75.5762274,112.797014 L75.8896067,113.186621 L78.3966413,116.303474 L78.7100206,116.693081 L77.9308072,117.31984 L77.6174279,116.930233 L75.1103933,113.813379 L74.797014,113.423773 L75.5762274,112.797014 Z" fill="#000000" fill-rule="nonzero"></path>
        <path id="Line" d="M113.313096,193.289314 L114.30642,193.404673 L114.24874,193.901335 L113.189884,203.018836 L113.087342,203.901791 L112.386019,203.355651 L105.144059,197.716146 L104.749564,197.408942 L105.363971,196.619953 L105.758466,196.927156 L111.494,201.393 L111.444241,201.274103 L112.366554,200.887659 L112.417,201.008 L113.255416,193.785976 L113.313096,193.289314 Z M109.275002,193.509156 L109.468224,193.970313 L110.087599,195.448553 L111.014,197.659564 L111.207222,198.120721 L110.284909,198.507165 L110.091687,198.046008 L109.165286,195.834997 L108.545911,194.356757 L108.352689,193.8956 L109.275002,193.509156 Z M106.18345,186.130653 L106.376672,186.59181 L107.922448,190.281061 L108.11567,190.742218 L107.193357,191.128661 L107.000135,190.667505 L105.45436,186.978253 L105.261138,186.517097 L106.18345,186.130653 Z M103.091899,178.75215 L103.285121,179.213306 L104.830897,182.902558 L105.024119,183.363714 L104.101806,183.750158 L103.908584,183.289002 L102.362808,179.59975 L102.169586,179.138594 L103.091899,178.75215 Z M100.000347,171.373647 L100.193569,171.834803 L101.739345,175.524055 L101.932567,175.985211 L101.010254,176.371655 L100.817032,175.910499 L99.2712563,172.221247 L99.0780344,171.760091 L100.000347,171.373647 Z M96.9087957,163.995144 L97.1020176,164.4563 L98.6477934,168.145552 L98.8410154,168.606708 L97.9187025,168.993152 L97.7254805,168.531996 L96.1797047,164.842744 L95.9864828,164.381588 L96.9087957,163.995144 Z M93.8172441,156.61664 L94.010466,157.077797 L95.5562418,160.767048 L95.7494638,161.228205 L94.8271509,161.614649 L94.6339289,161.153492 L93.0881531,157.464241 L92.8949312,157.003084 L93.8172441,156.61664 Z M90.7256925,149.238137 L90.9189144,149.699294 L92.4646902,153.388545 L92.6579122,153.849702 L91.7355993,154.236146 L91.5423773,153.774989 L89.9966015,150.085738 L89.8033796,149.624581 L90.7256925,149.238137 Z M87.6341409,141.859634 L87.8273628,142.320791 L89.3731386,146.010042 L89.5663606,146.471199 L88.6440477,146.857643 L88.4508257,146.396486 L86.9050499,142.707235 L86.711828,142.246078 L87.6341409,141.859634 Z M84.5425893,134.481131 L84.7358112,134.942287 L86.281587,138.631539 L86.474809,139.092695 L85.5524961,139.479139 L85.3592741,139.017983 L83.8134983,135.328731 L83.6202764,134.867575 L84.5425893,134.481131 Z M81.4510377,127.102628 L81.6442596,127.563784 L83.1900354,131.253036 L83.3832574,131.714192 L82.4609445,132.100636 L82.2677225,131.63948 L80.7219468,127.950228 L80.5287248,127.489072 L81.4510377,127.102628 Z M78.3594861,119.724125 L78.552708,120.185281 L80.0984838,123.874533 L80.2917058,124.335689 L79.3693929,124.722133 L79.176171,124.260977 L77.6303952,120.571725 L77.4371732,120.110569 L78.3594861,119.724125 Z M75.2679345,112.345622 L75.4611564,112.806778 L77.0069322,116.49603 L77.2001542,116.957186 L76.2778413,117.34363 L76.0846194,116.882474 L74.5388436,113.193222 L74.3456216,112.732066 L75.2679345,112.345622 Z" fill="#000000" fill-rule="nonzero"></path>
        <path id="Line" d="M101.416655,104.663241 L101.84735,104.917212 L109.753867,109.579507 L110.519548,110.031011 L109.736084,110.450901 L101.645932,114.786732 L101.205233,115.02292 L100.732857,114.141523 L101.173556,113.905335 L107.989,110.252 L108,109.706 L101.339408,105.778603 L100.908712,105.524632 L101.416655,104.663241 Z M100.006975,109.316365 L100.506871,109.326567 L101.530299,109.347453 L104.506038,109.408182 L105.005934,109.418384 L104.98553,110.418176 L104.485634,110.407974 L101.509895,110.347245 L100.486467,110.326359 L99.9865712,110.316157 L100.006975,109.316365 Z M92.0086406,109.153133 L92.5085365,109.163335 L96.5077038,109.244951 L97.0075997,109.255153 L96.9871958,110.254945 L96.4872999,110.244743 L92.4881326,110.163127 L91.9882367,110.152925 L92.0086406,109.153133 Z M84.010306,108.989902 L84.510202,109.000104 L88.5093692,109.08172 L89.0092651,109.091922 L88.9888612,110.091714 L88.4889653,110.081512 L84.489798,109.999896 L83.9899021,109.989694 L84.010306,108.989902 Z" transform="translate(96.5, 110) rotate(-1.1691) translate(-96.5, -110)" fill="#000000" fill-rule="nonzero"></path>
        <path id="Line" d="M281.401349,104.887795 L281.833406,105.139443 L289.764919,109.759085 L290.533021,110.20646 L289.751829,110.630563 L281.685147,115.009905 L281.245727,115.248463 L280.768611,114.369622 L281.208031,114.131064 L287.596,110.662 L281.52062,110.571145 L243.492491,109.999944 L242.992547,109.992434 L243.007566,108.992547 L243.507509,109.000056 L281.535639,109.571258 L287.613,109.662 L281.33011,106.003557 L280.898053,105.751909 L281.401349,104.887795 Z" transform="translate(266.5, 110) rotate(-1.1691) translate(-266.5, -110)" fill="#E02020" fill-rule="nonzero"></path>
        <path id="Line" d="M282.891252,44.6842759 L283.323309,44.9359239 L291.254822,49.5555668 L292.022923,50.002941 L291.241732,50.427044 L283.175049,54.806386 L282.735629,55.044944 L282.258513,54.1661036 L282.697933,53.9275456 L289.087,50.458 L283.010522,50.3676266 L244.982393,49.7964249 L244.482449,49.7889155 L244.497468,48.7890283 L244.997412,48.7965377 L283.025541,49.3677394 L289.101,49.458 L282.820013,45.800038 L282.387956,45.54839 L282.891252,44.6842759 Z" transform="translate(267.9899, 49.7965) rotate(-1.1691) translate(-267.9899, -49.7965)" fill="#E02020" fill-rule="nonzero"></path>
        <circle id="Oval" stroke="#228833" fill="#228833" cx="75" cy="109" r="8.5"></circle>
        <circle id="Oval" stroke="#000000" fill="#000000" cx="307" cy="51" r="8.5"></circle>
        <circle id="Oval" stroke="#000000" fill="#000000" cx="307" cy="168" r="8.5"></circle>
        <circle id="Oval" stroke="#000000" fill="#000000" cx="307" cy="221" r="8.5"></circle>
        <circle id="Oval" stroke="#000000" fill="#000000" cx="307" cy="269" r="8.5"></circle>
        <circle id="Oval" stroke="#000000" fill="#000000" cx="307" cy="109" r="8.5"></circle>
        <circle id="Oval" stroke="#000000" fill="#FFFFFF" cx="121" cy="50" r="8.5"></circle>
        <circle id="Oval" stroke="#000000" fill="#FFFFFF" cx="120" cy="110" r="8.5"></circle>
        <circle id="Oval" stroke="#000000" fill="#FFFFFF" cx="236" cy="109" r="8.5"></circle>
        <circle id="Oval" stroke="#000000" fill="#FFFFFF" cx="235" cy="51" r="8.5"></circle>
        <circle id="Oval" stroke="#000000" fill="#FFFFFF" cx="235" cy="168" r="8.5"></circle>
        <circle id="Oval" stroke="#000000" fill="#FFFFFF" cx="234" cy="221" r="8.5"></circle>
        <circle id="Oval" stroke="#000000" fill="#FFFFFF" cx="235" cy="269" r="8.5"></circle>
        <circle id="Oval" stroke="#000000" fill="#FFFFFF" cx="121" cy="168" r="8.5"></circle>
        <circle id="Oval" stroke="#000000" fill="#FFFFFF" cx="121" cy="220" r="8.5"></circle>
        <text id="budget" font-family="Helvetica" font-size="16" font-weight="normal" fill="#000000">
            <tspan x="9" y="114">budget</tspan>
        </text>
        <text id="machines" font-family="Helvetica" font-size="16" font-weight="normal" fill="#000000">
            <tspan x="87" y="273">machines</tspan>
        </text>
        <text id="products" font-family="Helvetica" font-size="16" font-weight="normal" fill="#000000">
            <tspan x="202" y="321">products</tspan>
        </text>
        <text id="market" font-family="Helvetica" font-size="16" font-weight="normal" fill="#000000">
            <tspan x="281" y="321">market</tspan>
        </text>
        <text id="2" font-family="Helvetica" font-size="14" font-weight="normal" fill="#000000">
            <tspan x="116" y="34">2</tspan>
        </text>
        <text id="8" font-family="Helvetica" font-size="14" font-weight="normal" fill="#000000">
            <tspan x="231" y="151">8</tspan>
        </text>
        <text id="9" font-family="Helvetica" font-size="14" font-weight="normal" fill="#000000">
            <tspan x="231" y="204">9</tspan>
        </text>
        <text id="10" font-family="Helvetica" font-size="14" font-weight="normal" fill="#000000">
            <tspan x="227" y="255">10</tspan>
        </text>
        <text id="11" font-family="Helvetica" font-size="14" font-weight="normal" fill="#000000">
            <tspan x="300" y="35">11</tspan>
        </text>
        <text id="12" font-family="Helvetica" font-size="14" font-weight="normal" fill="#000000">
            <tspan x="298" y="95">12</tspan>
        </text>
        <text id="13" font-family="Helvetica" font-size="14" font-weight="normal" fill="#000000">
            <tspan x="298" y="151">13</tspan>
        </text>
        <text id="14" font-family="Helvetica" font-size="14" font-weight="normal" fill="#000000">
            <tspan x="298" y="204">14</tspan>
        </text>
        <text id="15" font-family="Helvetica" font-size="14" font-weight="normal" fill="#000000">
            <tspan x="298" y="255">15</tspan>
        </text>
        <text id="1" font-family="Helvetica" font-size="16" font-weight="normal" fill="#000000">
            <tspan x="67" y="89">1</tspan>
        </text>
        <text id="3" font-family="Helvetica" font-size="14" font-weight="normal" fill="#000000">
            <tspan x="116" y="93">3</tspan>
        </text>
        <text id="4" font-family="Helvetica" font-size="14" font-weight="normal" fill="#000000">
            <tspan x="116" y="151">4</tspan>
        </text>
        <text id="5" font-family="Helvetica" font-size="14" font-weight="normal" fill="#000000">
            <tspan x="116" y="205">5</tspan>
        </text>
        <text id="7" font-family="Helvetica" font-size="14" font-weight="normal" fill="#000000">
            <tspan x="231" y="95">7</tspan>
        </text>
        <text id="6" font-family="Helvetica" font-size="14" font-weight="normal" fill="#000000">
            <tspan x="231" y="35">6</tspan>
        </text>
    </g>
</svg>